<svg xmlns="http://www.w3.org/2000/svg" viewBox="0 0 512 512"><rect width="512" height="512" rx="112" fill="#071520"/><path fill="#c3a46d" d="M256 45 430 112v122c0 116-65 193-174 240C147 427 82 350 82 234V112z"/><path fill="#0f4938" d="M256 93 387 143v91c0 84-43 143-131 184-88-41-131-100-131-184v-91z"/><circle cx="256" cy="244" r="70" fill="none" stroke="#f4efe3" stroke-width="24"/><path d="m256 174 35 47-17 55h-38l-17-55z" fill="#f4efe3"/><path d="m187 225 32-4m74 0 32 4m-89 51-25 36m63-36 26 36" stroke="#f4efe3" stroke-width="17" stroke-linecap="round"/></svg>
